<?xml version="1.0" encoding="UTF-8" standalone="no"?>
<svg
   height="24px"
   viewBox="0 -960 960 960"
   width="24px"
   fill="#e8eaed"
   version="1.1"
   id="svg4"
   sodipodi:docname="factory_24dp_E8EAED_FILL0_wght400_GRAD0_opsz24.svg"
   inkscape:version="1.1.2 (0a00cf5339, 2022-02-04)"
   xmlns:inkscape="http://www.inkscape.org/namespaces/inkscape"
   xmlns:sodipodi="http://sodipodi.sourceforge.net/DTD/sodipodi-0.dtd"
   xmlns="http://www.w3.org/2000/svg"
   xmlns:svg="http://www.w3.org/2000/svg">
  <defs
     id="defs8" />
  <sodipodi:namedview
     id="namedview6"
     pagecolor="#ffffff"
     bordercolor="#666666"
     borderopacity="1.0"
     inkscape:pageshadow="2"
     inkscape:pageopacity="0.0"
     inkscape:pagecheckerboard="0"
     showgrid="false"
     inkscape:zoom="32.25"
     inkscape:cx="11.984496"
     inkscape:cy="12.015504"
     inkscape:window-width="1920"
     inkscape:window-height="946"
     inkscape:window-x="0"
     inkscape:window-y="27"
     inkscape:window-maximized="1"
     inkscape:current-layer="svg4" />
  <path
     d="M80-80v-481l280-119v80l200-80v120h320v480H80Zm80-80h640v-320H480v-82l-200 80v-78l-120 53v347Zm280-80h80v-160h-80v160Zm-160 0h80v-160h-80v160Zm320 0h80v-160h-80v160Zm280-320H680l40-320h120l40 320ZM160-160h640-640Z"
     id="path2" />
  <path
     style="fill:#000000;stroke:none;stroke-width:0.0310078"
     d="m 2.0006793,15.992248 6.792e-4,-6.0077519 3.479941,-1.4768694 3.4799408,-1.4768695 0.00818,0.9884974 c 0.0045,0.5436735 0.014927,0.9884973 0.023171,0.9884973 0.00824,0 1.1313447,-0.4465116 2.4957787,-0.992248 1.364435,-0.5457365 2.487728,-0.9922481 2.496209,-0.9922481 0.0085,0 0.01542,0.6697675 0.01542,1.4883721 V 10 h 1.501412 1.501412 l 0.01687,-0.085271 c 0.0093,-0.046899 0.236242,-1.8470316 0.504367,-4.0002943 l 0.4875,-3.915023 1.489447,0.00805 1.489448,0.00805 0.50333,4.0155039 0.50333,4.0155044 0.0014,5.976744 L 22,22 H 12 2 Z M 20.015504,16 v -4.015504 h -4 -4 v -1.026573 c 0,-0.808753 -0.0082,-1.0233246 -0.03876,-1.0112613 -0.02132,0.00842 -1.127132,0.4510283 -2.4573642,0.9835713 -1.3302325,0.532542 -2.4360465,0.975149 -2.4573643,0.98357 -0.030506,0.01205 -0.03876,-0.190559 -0.03876,-0.951519 0,-0.830387 -0.00637,-0.9654164 -0.045152,-0.956806 -0.024834,0.0055 -0.7085548,0.302992 -1.5193799,0.661062 L 3.984496,11.317576 v 4.348964 4.348964 H 12 20.015504 Z"
     id="path47"
     transform="matrix(40,0,0,40,0,-960)" />
  <path
     style="fill:#000000;stroke-width:0.0310078"
     d="M 7.0232558,16 V 14 H 8 8.9767442 v 2 2 H 8 7.0232558 Z"
     id="path197"
     transform="matrix(40,0,0,40,0,-960)" />
  <path
     style="fill:#000000;stroke-width:0.0310078"
     d="M 11.023256,16 V 14 H 12 12.976744 v 2 2 H 12 11.023256 Z"
     id="path236"
     transform="matrix(40,0,0,40,0,-960)" />
  <path
     style="fill:#000000;stroke-width:0.0310078"
     d="M 15.023256,16 V 14 H 16 16.976744 v 2 2 H 16 15.023256 Z"
     id="path275"
     transform="matrix(40,0,0,40,0,-960)" />
</svg>
